<svg width="40" height="40" viewBox="0 0 40 40" fill="none" xmlns="http://www.w3.org/2000/svg">
<rect width="40" height="40" rx="20" fill="white"/>
<path d="M28.1771 12.0134C28.9422 11.2539 28.9422 10.017 28.1771 9.25588L25.3674 6.44428L25.3719 6.44728L21.5405 2.61941C21.1276 2.2188 20.574 1.99639 19.9989 2.00004C19.4238 2.00369 18.873 2.23311 18.4652 2.63893L2.63876 18.4683C2.43633 18.6696 2.27568 18.909 2.16606 19.1727C2.05644 19.4363 2 19.7191 2 20.0047C2 20.2903 2.05644 20.573 2.16606 20.8367C2.27568 21.1004 2.43633 21.3398 2.63876 21.5411L18.4637 37.3629C18.8716 37.7709 19.4247 38 20.0014 38C20.5781 38 21.1311 37.7709 21.539 37.3629L28.1741 30.728C28.3557 30.5471 28.4997 30.3321 28.598 30.0954C28.6963 29.8586 28.7468 29.6048 28.7468 29.3484C28.7468 29.0921 28.6963 28.8383 28.598 28.6015C28.4997 28.3648 28.3557 28.1498 28.1741 27.9689C27.8073 27.6041 27.3112 27.3993 26.794 27.3993C26.2768 27.3993 25.7807 27.6041 25.4139 27.9689L20.3884 33.0037C20.3401 33.0532 20.2823 33.0925 20.2186 33.1194C20.1548 33.1463 20.0863 33.1601 20.0171 33.1601C19.9479 33.1601 19.8795 33.1463 19.8157 33.1194C19.7519 33.0925 19.6942 33.0532 19.6458 33.0037L7.00417 20.3657C6.95468 20.3173 6.91535 20.2595 6.88851 20.1957C6.86166 20.1319 6.84783 20.0634 6.84783 19.9942C6.84783 19.9249 6.86166 19.8564 6.88851 19.7926C6.91535 19.7288 6.95468 19.671 7.00417 19.6226L19.6413 6.98318C19.6563 6.96817 19.6773 6.95616 19.6938 6.93965C19.7935 6.85905 19.9198 6.81893 20.0477 6.82728C20.1755 6.83562 20.2956 6.89182 20.3839 6.98468L25.4154 12.0134C25.5965 12.1952 25.8118 12.3395 26.0487 12.4379C26.2857 12.5363 26.5397 12.5869 26.7963 12.5869C27.0528 12.5869 27.3068 12.5363 27.5438 12.4379C27.7808 12.3395 27.996 12.1952 28.1771 12.0134ZM15.8085 20.0835C15.8085 21.2168 16.2587 22.3036 17.0601 23.1049C17.8614 23.9063 18.9483 24.3564 20.0816 24.3564C21.2149 24.3564 22.3018 23.9063 23.1032 23.1049C23.9046 22.3036 24.3548 21.2168 24.3548 20.0835C24.3548 18.9502 23.9046 17.8634 23.1032 17.0621C22.3018 16.2607 21.2149 15.8105 20.0816 15.8105C18.9483 15.8105 17.8614 16.2607 17.0601 17.0621C16.2587 17.8634 15.8085 18.9502 15.8085 20.0835ZM37.3625 18.5313L32.421 13.6091C32.054 13.2437 31.557 13.039 31.0392 13.0398C30.5214 13.0406 30.0251 13.247 29.6593 13.6136C29.4778 13.7945 29.3337 14.0095 29.2354 14.2463C29.1372 14.483 29.0866 14.7368 29.0866 14.9932C29.0866 15.2495 29.1372 15.5034 29.2354 15.7401C29.3337 15.9768 29.4778 16.1918 29.6593 16.3727L32.9956 19.7082C33.2056 19.9169 33.2056 20.2426 32.9956 20.4513L29.7073 23.7387C29.526 23.9196 29.3821 24.1345 29.284 24.3711C29.1858 24.6077 29.1353 24.8613 29.1353 25.1175C29.1353 25.3737 29.1858 25.6273 29.284 25.8639C29.3821 26.1005 29.526 26.3154 29.7073 26.4963C30.0741 26.8611 30.5702 27.0659 31.0874 27.0659C31.6046 27.0659 32.1007 26.8611 32.4675 26.4963L37.364 21.6026C37.5659 21.4009 37.726 21.1613 37.8351 20.8976C37.9442 20.6338 38.0003 20.3511 38 20.0656C37.9997 19.7801 37.9431 19.4975 37.8335 19.234C37.7238 18.9704 37.5633 18.7311 37.361 18.5298L37.3625 18.5313Z" fill="black"/>
</svg>
