<svg width="40" height="40" viewBox="0 0 40 40" fill="none" xmlns="http://www.w3.org/2000/svg">
<path d="M3.63587 3.7501C3.3046 3.74568 2.98837 3.89277 2.77205 4.1519C2.55572 4.41103 2.46143 4.75568 2.51447 5.0934L7.27483 34.9355C7.39727 35.6894 8.02616 36.2436 8.76631 36.2499H31.6037C32.1592 36.2572 32.6362 35.8435 32.7251 35.2771L37.4855 5.09918C37.5386 4.76147 37.4442 4.41682 37.228 4.15768C37.0116 3.89856 36.6954 3.75147 36.3641 3.75588L3.63587 3.7501ZM23.681 25.3182H16.3919L14.4182 14.6702H25.4472L23.681 25.3182Z" fill="#2684FF"/>
<path fill-rule="evenodd" clip-rule="evenodd" d="M35.9722 14.6703H25.4477L23.6816 25.3183H16.3925L7.78564 35.868C8.05843 36.1115 8.40624 36.247 8.76687 36.2501H31.6099C32.1655 36.2575 32.6425 35.8437 32.7314 35.2773L35.9722 14.6703Z" fill="url(#paint0_linear_2109_305)"/>
<defs>
<linearGradient id="paint0_linear_2109_305" x1="38.4056" y1="17.6522" x2="25.7205" y2="35.0941" gradientUnits="userSpaceOnUse">
<stop offset="0.18" stop-color="#0052CC"/>
<stop offset="1" stop-color="#2684FF"/>
</linearGradient>
</defs>
</svg>
