<svg width="40" height="40" viewBox="0 0 40 40" fill="none" xmlns="http://www.w3.org/2000/svg">
<path d="M20 37.5C29.665 37.5 37.5 29.665 37.5 20C37.5 10.335 29.665 2.5 20 2.5C10.335 2.5 2.5 10.335 2.5 20C2.5 29.665 10.335 37.5 20 37.5Z" fill="#1794D4"/>
<path d="M22.5 8.75H20V11.25H22.5V8.75Z" fill="white"/>
<path d="M12.5 12.5H15V15H12.5V12.5Z" fill="white"/>
<path d="M7.50193 21.1768C7.71555 24.8034 9.87533 30 17.5 30C26 30 29.7916 23.75 30.625 20.625C31.6666 20.625 34 20 35 17.5C34.375 16.875 31.875 16.875 30.625 17.5C30.625 16.5 30 14.375 28.75 13.75C27.9166 14.5834 26.625 16.75 28.125 18.75C27.5 20 25.8334 20 25 20H8.67862C8.01677 20 7.46301 20.516 7.50193 21.1768Z" fill="white"/>
<path d="M11.25 16.25H8.75V18.75H11.25V16.25Z" fill="white"/>
<path d="M12.5 16.25H15V18.75H12.5V16.25Z" fill="white"/>
<path d="M18.75 16.25H16.25V18.75H18.75V16.25Z" fill="white"/>
<path d="M20 16.25H22.5V18.75H20V16.25Z" fill="white"/>
<path d="M26.25 16.25H23.75V18.75H26.25V16.25Z" fill="white"/>
<path d="M18.75 12.5H16.25V15H18.75V12.5Z" fill="white"/>
<path d="M20 12.5H22.5V15H20V12.5Z" fill="white"/>
</svg>
