<svg width="40" height="40" viewBox="0 0 40 40" fill="none" xmlns="http://www.w3.org/2000/svg">
<rect width="40" height="40" rx="20" fill="#FFF312"/>
<g clip-path="url(#clip0_2248_230)">
<path d="M15.838 14L9.12 25.989H3L8.245 16.628C9.059 15.176 11.088 14 12.778 14H15.838ZM30.846 16.997C30.846 15.342 32.216 14 33.906 14C35.596 14 36.966 15.342 36.966 16.997C36.966 18.653 35.596 19.995 33.906 19.995C32.216 19.995 30.846 18.653 30.846 16.997ZM16.985 14H23.105L16.387 25.989H10.267L16.985 14ZM24.214 14H30.334L25.088 23.362C24.275 24.813 22.246 25.989 20.556 25.989H17.496L24.214 14Z" fill="black"/>
</g>
<defs>
<clipPath id="clip0_2248_230">
<rect width="34" height="12" fill="white" transform="translate(3 14)"/>
</clipPath>
</defs>
</svg>
