<svg width="1297" height="185" viewBox="0 0 1297 185" fill="none" xmlns="http://www.w3.org/2000/svg">
<g clip-path="url(#clip0_2144_205)">
<mask id="mask0_2144_205" style="mask-type:luminance" maskUnits="userSpaceOnUse" x="0" y="0" width="1297" height="185">
<path d="M1297 0H0V185H1297V0Z" fill="white"/>
</mask>
<g mask="url(#mask0_2144_205)">
<mask id="mask1_2144_205" style="mask-type:alpha" maskUnits="userSpaceOnUse" x="-3" y="-1" width="1301" height="190">
<path d="M-2.72217 185V3.68062H106.862V34.0264H27.7389V79.2304H91.6944V109.45H27.7389V185H-2.72217ZM129.597 185V3.68062H204.802C206.571 3.68062 208.846 3.76457 211.627 3.93245C214.408 4.0164 216.977 4.26823 219.337 4.68795C229.87 6.28289 238.549 9.76655 245.374 15.139C252.283 20.5115 257.382 27.3109 260.668 35.5374C264.038 43.68 265.724 52.746 265.724 62.7353C265.724 77.5095 261.974 90.227 254.475 100.888C246.975 111.465 235.473 118.013 219.969 120.531L206.95 121.664H160.058V185H129.597ZM234.125 185L198.229 111.213L229.196 104.414L268.631 185H234.125ZM160.058 93.333H203.538C205.223 93.333 207.119 93.249 209.226 93.0812C211.331 92.9133 213.27 92.5775 215.04 92.0738C220.095 90.8147 224.055 88.5901 226.921 85.4003C229.87 82.2104 231.934 78.6008 233.114 74.5715C234.378 70.5421 235.01 66.5968 235.01 62.7353C235.01 58.8739 234.378 54.9285 233.114 50.8992C231.934 46.7859 229.87 43.1343 226.921 39.9445C224.055 36.7547 220.095 34.5301 215.04 33.2709C213.27 32.7673 211.331 32.4735 209.226 32.3895C207.119 32.2217 205.223 32.1377 203.538 32.1377H160.058V93.333ZM373.451 188.777C355.25 188.777 339.662 184.832 326.685 176.941C313.709 168.967 303.724 157.886 296.729 143.699C289.82 129.513 286.365 113.06 286.365 94.3403C286.365 75.6207 289.82 59.1677 296.729 44.9811C303.724 30.7946 313.709 19.756 326.685 11.8652C339.662 3.89048 355.25 -0.0968628 373.451 -0.0968628C391.651 -0.0968628 407.241 3.89048 420.217 11.8652C433.278 19.756 443.263 30.7946 450.172 44.9811C457.166 59.1677 460.663 75.6207 460.663 94.3403C460.663 113.06 457.166 129.513 450.172 143.699C443.263 157.886 433.278 168.967 420.217 176.941C407.241 184.832 391.651 188.777 373.451 188.777ZM373.451 160.195C385.669 160.279 395.822 157.592 403.912 152.136C412.085 146.68 418.194 138.999 422.239 129.093C426.368 119.187 428.432 107.603 428.432 94.3403C428.432 81.0772 426.368 69.5768 422.239 59.8393C418.194 50.0178 412.085 42.3788 403.912 36.9225C395.822 31.4662 385.669 28.654 373.451 28.4861C361.233 28.4021 351.079 31.0884 342.99 36.5448C334.9 42.0011 328.792 49.682 324.662 59.5874C320.618 69.4929 318.595 81.0772 318.595 94.3403C318.595 107.603 320.618 119.146 324.662 128.967C328.707 138.704 334.774 146.302 342.863 151.758C351.037 157.214 361.233 160.027 373.451 160.195ZM485.821 185V3.68062H516.661L601.093 131.486V3.68062H631.933V185H601.093L516.661 57.195V185H485.821ZM710.999 185V32.1377H652.1V3.68062H800.36V32.1377H741.46V185H710.999ZM820.569 185V3.68062H938.115V32.1377H851.03V76.838H922.948V105.295H851.03V156.543H938.115V185H820.569ZM968.44 185V3.68062H999.283L1083.71 131.486V3.68062H1114.55V185H1083.71L999.283 57.195V185H968.44ZM1149.89 185V3.68062H1207.9C1209.42 3.68062 1212.4 3.7226 1216.88 3.80654C1221.43 3.89048 1225.8 4.18428 1230.02 4.68795C1244.43 6.53472 1256.6 11.6553 1266.55 20.0497C1276.57 28.3602 1284.16 38.9791 1289.3 51.9065C1294.43 64.834 1297.01 78.9785 1297.01 94.3403C1297.01 109.702 1294.43 123.846 1289.3 136.774C1284.16 149.702 1276.57 160.362 1266.55 168.757C1256.6 177.067 1244.43 182.146 1230.02 183.993C1225.89 184.496 1221.55 184.79 1217 184.874C1212.45 184.958 1209.42 185 1207.9 185H1149.89ZM1180.85 156.417H1207.9C1210.43 156.417 1213.63 156.333 1217.51 156.165C1221.47 155.998 1224.97 155.62 1228 155.032C1236.59 153.437 1243.58 149.618 1248.98 143.574C1254.37 137.53 1258.33 130.185 1260.86 121.538C1263.47 112.892 1264.78 103.826 1264.78 94.3403C1264.78 84.5189 1263.47 75.285 1260.86 66.6387C1258.25 57.9925 1254.2 50.7314 1248.73 44.8552C1243.33 38.9791 1236.42 35.2437 1228 33.6487C1224.97 32.9772 1221.47 32.5994 1217.51 32.5154C1213.63 32.3476 1210.43 32.2636 1207.9 32.2636H1180.85V156.417Z" fill="#F5F5F5"/>
</mask>
<g mask="url(#mask1_2144_205)">
<path d="M1297 -9.68585H0V185H1297V-9.68585Z" fill="url(#paint0_linear_2144_205)"/>
</g>
</g>
</g>
<defs>
<linearGradient id="paint0_linear_2144_205" x1="649.009" y1="-9.68585" x2="649.009" y2="177.512" gradientUnits="userSpaceOnUse">
<stop stop-color="#F5F5F5"/>
<stop offset="1" stop-color="#171717" stop-opacity="0"/>
</linearGradient>
<clipPath id="clip0_2144_205">
<rect width="1297" height="185" fill="white"/>
</clipPath>
</defs>
</svg>
