<svg width="40" height="40" viewBox="0 0 40 40" fill="none" xmlns="http://www.w3.org/2000/svg">
<g clip-path="url(#clip0_2109_300)">
<rect width="40" height="40" rx="20" fill="white"/>
<path d="M20.0001 3.33331C16.0312 3.31834 12.1872 4.72023 9.15971 7.28675C6.13224 9.85327 4.12006 13.4159 3.48517 17.3338C2.85027 21.2516 3.63436 25.2674 5.69635 28.6587C7.75834 32.05 10.9629 34.5941 14.7334 35.8333C15.5667 35.9666 15.8334 35.45 15.8334 35V32.1833C11.2167 33.1833 10.2334 30 10.2334 30C9.92215 28.9648 9.2474 28.077 8.33341 27.5C6.81674 26.4666 8.45007 26.5 8.45007 26.5C8.97324 26.5677 9.47434 26.7527 9.91592 27.0413C10.3575 27.3299 10.7281 27.7146 11.0001 28.1666C11.463 28.9898 12.2323 29.597 13.1405 29.856C14.0487 30.1151 15.0225 30.0051 15.8501 29.55C15.926 28.7051 16.2979 27.9141 16.9001 27.3166C13.3334 26.95 9.36674 25.5166 9.36674 19.1666C9.31853 17.5024 9.91573 15.884 11.0334 14.65C10.526 13.2157 10.5856 11.6418 11.2001 10.25C11.2001 10.25 12.6001 9.79998 15.7834 11.9166C18.5127 11.1829 21.3874 11.1829 24.1167 11.9166C27.3001 9.76664 28.7001 10.25 28.7001 10.25C29.3146 11.6418 29.3742 13.2157 28.8667 14.65C29.9844 15.884 30.5816 17.5024 30.5334 19.1666C30.5334 25.5333 26.6334 26.9333 22.9167 27.35C23.317 27.7523 23.6267 28.2356 23.825 28.7673C24.0234 29.2991 24.1058 29.8671 24.0667 30.4333V35C24.0667 35.45 24.3334 35.9833 25.1834 35.8333C28.9471 34.5963 32.147 32.059 34.2094 28.6765C36.2718 25.2939 37.0619 21.2873 36.4379 17.375C35.814 13.4627 33.8168 9.90066 30.8045 7.32746C27.7922 4.75427 23.9618 3.33825 20.0001 3.33331Z" fill="black"/>
</g>
<defs>
<clipPath id="clip0_2109_300">
<rect width="40" height="40" rx="20" fill="white"/>
</clipPath>
</defs>
</svg>
