<svg width="40" height="40" viewBox="0 0 40 40" fill="none" xmlns="http://www.w3.org/2000/svg">
<g clip-path="url(#clip0_2113_164)">
<path d="M0 14.2223C0 9.24397 0 6.75486 0.968829 4.85341C1.82104 3.18087 3.18087 1.82104 4.85341 0.968829C6.75486 0 9.24397 0 14.2223 0H25.7777C30.756 0 33.2451 0 35.1466 0.968829C36.8191 1.82104 38.179 3.18087 39.0311 4.85341C40 6.75486 40 9.24397 40 14.2223V25.7777C40 30.756 40 33.2451 39.0311 35.1466C38.179 36.8191 36.8191 38.179 35.1466 39.0311C33.2451 40 30.756 40 25.7777 40H14.2223C9.24397 40 6.75486 40 4.85341 39.0311C3.18087 38.179 1.82104 36.8191 0.968829 35.1466C0 33.2451 0 30.756 0 25.7777V14.2223Z" fill="#F5F5F5"/>
<path d="M28 9.78601L20.0904 15.9754L12 9.78601V9.78768L12.0098 9.79605V18.4629L19.9993 24.786L28 18.707V9.78601Z" fill="#262626"/>
<path d="M30.2246 8.30073L28 9.81472V18.786L35 13.7259V10.6777C35 10.6777 34.1504 6.32411 30.2246 8.30073Z" fill="#A3A3A3"/>
<path d="M28 18.9382V30.786H33.3638C33.3638 30.786 34.8902 30.6353 35 28.967V13.786L28 18.9382Z" fill="#737373"/>
<path d="M12 9.85613L9.78432 8.31353C5.85272 6.28832 5 10.7472 5 10.7472V13.8703L12 18.786V9.85613Z" fill="#171717"/>
<path d="M5 13.786V28.9669C5.10815 30.6369 6.63619 30.786 6.63619 30.786H12L11.9878 18.6693L5 13.786Z" fill="#404040"/>
</g>
<defs>
<clipPath id="clip0_2113_164">
<rect width="40" height="40" rx="20" fill="white"/>
</clipPath>
</defs>
</svg>
