<svg width="40" height="40" viewBox="0 0 40 40" fill="none" xmlns="http://www.w3.org/2000/svg">
<path d="M37.5 2.5H2.5V37.5H37.5V2.5Z" fill="#F5DE19"/>
<path d="M26.0113 29.8438C26.3095 30.4495 26.7729 30.9586 27.3479 31.3125C27.9229 31.6664 28.5862 31.8505 29.2613 31.8438C30.6238 31.8438 31.4951 31.1625 31.4951 30.2188C31.4951 29.0938 30.6001 28.6913 29.1001 28.035L28.2776 27.6825C25.9026 26.6713 24.3276 25.405 24.3276 22.7275C24.3276 20.2613 26.2026 18.3825 29.1438 18.3825C30.096 18.3137 31.0473 18.5268 31.8791 18.9952C32.7109 19.4636 33.3864 20.1665 33.8213 21.0163L31.2501 22.66C31.0826 22.2387 30.791 21.8782 30.414 21.6263C30.0369 21.3745 29.5922 21.2433 29.1388 21.25C28.941 21.2302 28.7413 21.2518 28.5523 21.3135C28.3633 21.3751 28.1893 21.4755 28.0412 21.6081C27.8931 21.7408 27.7743 21.9028 27.6924 22.0839C27.6104 22.265 27.5671 22.4612 27.5651 22.66C27.5651 23.6463 28.1763 24.0463 29.5876 24.66L30.4101 25.0125C33.2051 26.2113 34.7851 27.4325 34.7851 30.1788C34.7851 33.14 32.4588 34.7625 29.3351 34.7625C28.118 34.84 26.9044 34.5637 25.8409 33.9668C24.7773 33.37 23.9092 32.4781 23.3413 31.3988L26.0113 29.8438ZM14.3926 30.1288C14.9088 31.045 15.3788 31.82 16.5088 31.82C17.5888 31.82 18.2713 31.3975 18.2713 29.7537V18.57H21.5601V29.7975C21.5601 33.2025 19.5601 34.7525 16.6488 34.7525C15.6198 34.8088 14.5978 34.5523 13.7172 34.0169C12.8366 33.4814 12.1387 32.692 11.7151 31.7525L14.3926 30.1288Z" fill="black"/>
</svg>
