<svg width="40" height="40" viewBox="0 0 40 40" fill="none" xmlns="http://www.w3.org/2000/svg">
<g clip-path="url(#clip0_2113_152)">
<path d="M20 40C31.0457 40 40 31.0457 40 20C40 8.9543 31.0457 0 20 0C8.9543 0 0 8.9543 0 20C0 31.0457 8.9543 40 20 40Z" fill="#262626"/>
<path fill-rule="evenodd" clip-rule="evenodd" d="M14.7747 10.2837C14.7747 11.5288 13.8267 12.5364 12.3442 12.5364C10.9194 12.5364 9.97126 11.5288 10.0007 10.2837C9.97126 8.97806 10.9193 7.99976 12.3726 7.99976C13.8267 7.99976 14.7463 8.97806 14.7747 10.2837ZM10.1199 28.8189V14.316H14.6271V28.8179L10.1199 28.8189Z" fill="#F5F5F5"/>
<path fill-rule="evenodd" clip-rule="evenodd" d="M18.2393 18.9447C18.2393 17.1358 18.1797 15.5936 18.1201 14.3183H22.0351L22.2432 16.3051H22.3322C22.9254 15.3855 24.4079 13.9928 26.8101 13.9928C29.7752 13.9928 31.9995 15.9503 31.9995 20.2191V28.8211H27.4922V20.7839C27.4922 18.9145 26.8404 17.64 25.2093 17.64C23.9633 17.64 23.2224 18.5 22.9263 19.3298C22.8071 19.6269 22.7484 20.0413 22.7484 20.4575V28.8211H18.2411V18.9447H18.2393Z" fill="#F5F5F5"/>
</g>
<defs>
<clipPath id="clip0_2113_152">
<rect width="40" height="40" fill="white"/>
</clipPath>
</defs>
</svg>
