<svg width="40" height="40" viewBox="0 0 40 40" fill="none" xmlns="http://www.w3.org/2000/svg">
<path d="M19.935 2.5H20.0163C20.4327 2.69833 20.8383 2.91864 21.2313 3.16C25.7555 5.76167 30.2796 8.36417 34.8038 10.9675C34.9788 11.0609 35.1217 11.2048 35.214 11.3804C35.3063 11.5561 35.3437 11.7554 35.3213 11.9525C35.3113 17.4388 35.3213 22.9237 35.315 28.4075C35.2562 28.6692 35.0962 28.897 34.87 29.0413C30.0592 31.8113 25.248 34.5796 20.4363 37.3463C20.3197 37.4351 20.1791 37.487 20.0328 37.4953C19.8864 37.5035 19.7409 37.4677 19.615 37.3925C14.7984 34.6308 9.98629 31.8642 5.17879 29.0925C5.02255 29.0186 4.89168 28.9001 4.8027 28.752C4.71371 28.6038 4.6706 28.4326 4.67879 28.26C4.67879 22.775 4.67879 17.2904 4.67879 11.8062C4.667 11.6344 4.70673 11.4629 4.7929 11.3137C4.87907 11.1645 5.00776 11.0444 5.16254 10.9688C9.68087 8.37042 14.1992 5.77042 18.7175 3.16875C19.12 2.93875 19.515 2.695 19.935 2.5Z" fill="#019639"/>
<path d="M10.9588 13.1725C10.9588 17.6967 10.9588 22.2213 10.9588 26.7463C10.953 26.9969 10.9972 27.2461 11.0889 27.4794C11.1805 27.7127 11.3177 27.9254 11.4925 28.105C11.8275 28.436 12.2659 28.6421 12.7345 28.6889C13.2031 28.7358 13.6736 28.6206 14.0675 28.3625C14.3312 28.1834 14.5471 27.9424 14.6963 27.6607C14.8455 27.379 14.9236 27.0651 14.9238 26.7463C14.9238 23.4713 14.9175 20.1963 14.9238 16.9213C17.9096 20.4963 20.9017 24.0663 23.9 27.6313C24.3166 28.0533 24.8324 28.3639 25.4003 28.5347C25.9681 28.7055 26.5698 28.731 27.15 28.6088C27.5597 28.5281 27.9328 28.318 28.2142 28.0095C28.4957 27.7011 28.6708 27.3104 28.7138 26.895C28.7204 22.2775 28.7204 17.6604 28.7138 13.0438C28.6707 12.551 28.4445 12.0922 28.0798 11.758C27.7151 11.4237 27.2384 11.2383 26.7438 11.2383C26.2491 11.2383 25.7724 11.4237 25.4077 11.758C25.043 12.0922 24.8168 12.551 24.7738 13.0438C24.7738 16.3713 24.7538 19.695 24.7738 23.0213C21.8413 19.5638 18.945 16.0763 16.0238 12.6063C15.6386 12.1124 15.1288 11.7302 14.5467 11.4991C13.9647 11.2679 13.3315 11.1962 12.7125 11.2913C12.2436 11.3435 11.8089 11.5619 11.4871 11.907C11.1654 12.2522 10.978 12.7011 10.9588 13.1725Z" fill="white"/>
</svg>
