<svg width="40" height="40" viewBox="0 0 40 40" fill="none" xmlns="http://www.w3.org/2000/svg">
<g clip-path="url(#clip0_2109_288)">
<path d="M24.5868 24.2591L23.8356 25.5636C23.6092 25.9566 23.1903 26.1988 22.7368 26.1988H16.9815C16.528 26.1988 16.1091 25.9566 15.8827 25.5636L15.1314 24.2591H24.5868ZM26.6901 20.6071L25.3654 22.9072H14.3529L13.0282 20.6071H26.6901ZM25.414 17.0359L26.6922 19.2553H13.0261L14.3042 17.0359H25.414ZM22.7368 13.6599C23.1903 13.6599 23.6092 13.9021 23.8356 14.295L24.6355 15.684H15.0828L15.8827 14.295C16.1091 13.9021 16.528 13.6599 16.9815 13.6599H22.7368Z" fill="#00435B"/>
<path d="M8.60546 13.0547C7.96791 9.96331 7.83112 7.59223 8.24321 5.87052C8.48829 4.84652 8.93637 4.01116 9.61775 3.40847C10.3371 2.77218 11.2465 2.45995 12.2684 2.45995C13.9542 2.45995 15.7264 3.2287 17.6203 4.6891C18.3928 5.28481 19.1946 6.00281 20.0272 6.84352C20.0935 6.75819 20.1684 6.67773 20.2519 6.60335C22.6059 4.50556 24.5878 3.2022 26.2829 2.69966C27.2908 2.40085 28.2372 2.37238 29.0989 2.66239C30.0085 2.96851 30.7333 3.6013 31.2447 4.48765C32.0886 5.95044 32.3112 7.87256 31.9965 10.2459C31.8683 11.2132 31.649 12.267 31.3392 13.4088C31.4561 13.4229 31.5733 13.4488 31.6893 13.4872C34.676 14.477 36.791 15.5414 38.0714 16.7578C38.8332 17.4815 39.3307 18.2872 39.5105 19.1791C39.7003 20.1204 39.5152 21.0647 39.0045 21.9504C38.1621 23.411 36.6133 24.5631 34.4067 25.4755C33.5207 25.8419 32.5183 26.1737 31.3982 26.4722C31.4494 26.5876 31.489 26.7101 31.5155 26.8387C32.1531 29.9301 32.2899 32.3011 31.8778 34.0229C31.6327 35.0469 31.1846 35.8822 30.5032 36.4849C29.7839 37.1212 28.8745 37.4334 27.8525 37.4334C26.1667 37.4334 24.3945 36.6647 22.5006 35.2043C21.7199 34.6023 20.9093 33.8753 20.0672 33.023C19.9805 33.1586 19.8741 33.2845 19.7483 33.3967C17.3942 35.4944 15.4124 36.7978 13.7172 37.3004C12.7093 37.5991 11.763 37.6276 10.9012 37.3376C9.99162 37.0315 9.26683 36.3987 8.75546 35.5124C7.91154 34.0496 7.689 32.1275 8.00362 29.7541C8.1365 28.7518 8.36708 27.6567 8.69483 26.4671C8.56675 26.4541 8.43808 26.427 8.31087 26.3849C5.32412 25.3951 3.20921 24.3307 1.92878 23.1143C1.16696 22.3906 0.669481 21.5849 0.489648 20.693C0.29983 19.7516 0.484914 18.8074 0.995681 17.9217C1.83804 16.4611 3.38689 15.309 5.59341 14.3966C6.50583 14.0192 7.54171 13.6786 8.70233 13.3733C8.661 13.2721 8.62833 13.1656 8.60546 13.0547Z" fill="#002B3B"/>
<path d="M29.4317 27.1424C29.7287 27.0898 30.0132 27.2802 30.0795 27.5723L30.0832 27.5896L30.1148 27.754C31.1414 33.1511 30.4182 35.8497 27.9454 35.8497C25.526 35.8497 22.446 33.547 18.7057 28.9416C18.623 28.8398 18.5784 28.7125 18.5795 28.5814C18.5822 28.276 18.8273 28.0295 19.1305 28.0229L19.148 28.0228L19.345 28.0242C20.919 28.0327 22.4491 27.9778 23.9354 27.8595C25.6899 27.7199 27.522 27.4809 29.4317 27.1424ZM12.4491 23.0627L12.4585 23.0787L12.5574 23.2512C13.3494 24.6282 14.1746 25.9351 15.033 27.172C16.0438 28.6286 17.1806 30.1032 18.4432 31.5957C18.6386 31.8266 18.6162 32.1693 18.3959 32.3732L18.3816 32.386L18.2545 32.4953C14.0768 36.075 11.3615 36.7895 10.1085 34.6392C8.88208 32.5343 9.32675 28.707 11.4425 23.1573C11.489 23.0354 11.5764 22.9333 11.6897 22.8687C11.9547 22.7175 12.2905 22.8047 12.4491 23.0627ZM31.5516 15.0987L31.5687 15.1043L31.726 15.1586C36.8826 16.9524 38.8418 18.9237 37.6034 21.0726C36.3922 23.1742 32.8713 24.7043 27.0405 25.663C26.9105 25.6844 26.777 25.6595 26.6635 25.5927C26.3952 25.435 26.3055 25.0897 26.4632 24.8213C27.2984 23.4007 28.0505 21.9872 28.7197 20.5809C29.4787 18.9858 30.1909 17.2738 30.8564 15.4447C30.9573 15.1674 31.2537 15.0168 31.5345 15.0937L31.5516 15.0987ZM13.3365 14.1956C13.6048 14.3533 13.6945 14.6987 13.5367 14.967C12.7016 16.3876 11.9495 17.8011 11.2803 19.2075C10.5213 20.8025 9.80912 22.5146 9.14362 24.3437C9.04066 24.6266 8.73412 24.7777 8.44837 24.6896L8.43125 24.684L8.274 24.6297C3.11735 22.836 1.15821 20.8646 2.39657 18.7158C3.60772 16.6142 7.1287 15.084 12.9595 14.1253C13.0895 14.104 13.2229 14.1288 13.3365 14.1956ZM29.8915 5.36054C31.1179 7.46542 30.6732 11.2927 28.5575 16.8424C28.511 16.9643 28.4236 17.0664 28.3102 17.1311C28.0453 17.2822 27.7095 17.195 27.5509 16.937L27.5415 16.921L27.4426 16.7485C26.6506 15.3715 25.8254 14.0646 24.967 12.8277C23.9562 11.3712 22.8194 9.89654 21.5567 8.404C21.3614 8.17308 21.3837 7.83037 21.6041 7.62654L21.6184 7.61371L21.7455 7.50437C25.9231 3.92477 28.6385 3.21016 29.8915 5.36054ZM12.2659 4.07959C14.6854 4.07959 17.7653 6.38229 21.5057 10.9877C21.5883 11.0894 21.6329 11.2168 21.6318 11.3479C21.6291 11.6532 21.384 11.8997 21.0808 11.9064L21.0633 11.9065L20.8663 11.9051C19.2923 11.8965 17.7622 11.9514 16.2759 12.0697C14.5214 12.2094 12.6893 12.4484 10.7797 12.7868C10.4827 12.8395 10.1981 12.6491 10.1318 12.357L10.1282 12.3397L10.0965 12.1753C9.06991 6.77816 9.79308 4.07959 12.2659 4.07959Z" fill="#FF4154"/>
<path d="M17.444 13.7307H22.275C22.9815 13.7307 23.634 14.1085 23.9857 14.7213L26.4113 18.9479C26.7603 19.5559 26.7603 20.3035 26.4113 20.9115L23.9857 25.1381C23.634 25.7509 22.9815 26.1287 22.275 26.1287H17.444C16.7375 26.1287 16.085 25.7509 15.7333 25.1381L13.3076 20.9115C12.9587 20.3035 12.9587 19.5559 13.3076 18.9479L15.7333 14.7213C16.085 14.1085 16.7375 13.7307 17.444 13.7307ZM21.5387 15.0064C22.2456 15.0064 22.8984 15.3846 23.2499 15.9979L24.9414 18.9488C25.2896 19.5564 25.2896 20.303 24.9414 20.9106L23.2499 23.8615C22.8984 24.4748 22.2456 24.8531 21.5387 24.8531H18.1803C17.4734 24.8531 16.8206 24.4748 16.4691 23.8615L14.7776 20.9106C14.4293 20.303 14.4293 19.5564 14.7776 18.9488L16.4691 15.9979C16.8206 15.3846 17.4734 15.0064 18.1803 15.0064H21.5387ZM20.7451 16.4016H18.9739C18.2677 16.4016 17.6155 16.7791 17.2636 17.3914L16.3698 18.9471C16.0202 19.5555 16.0202 20.3039 16.3698 20.9124L17.2636 22.468C17.6155 23.0803 18.2677 23.4578 18.9739 23.4578H20.7451C21.4512 23.4578 22.1035 23.0803 22.4553 22.468L23.3491 20.9124C23.6987 20.3039 23.6987 19.5555 23.3491 18.9471L22.4553 17.3914C22.1035 16.7791 21.4512 16.4016 20.7451 16.4016ZM19.9809 17.7371C20.6866 17.7371 21.3384 18.1141 21.6904 18.7256L21.8171 18.9458C22.1677 19.5549 22.1677 20.3045 21.8171 20.9136L21.6904 21.1338C21.3384 21.7454 20.6866 22.1223 19.9809 22.1223H19.738C19.0324 22.1223 18.3806 21.7454 18.0286 21.1338L17.9018 20.9136C17.5512 20.3045 17.5512 19.5549 17.9018 18.9458L18.0286 18.7256C18.3806 18.1141 19.0324 17.7371 19.738 17.7371H19.9809ZM19.8598 19.0527C19.5457 19.0527 19.2561 19.2198 19.0993 19.4912C18.9425 19.7625 18.9425 20.0969 19.0993 20.3682C19.2561 20.6396 19.5457 20.8067 19.8591 20.8067C20.1732 20.8067 20.4628 20.6396 20.6196 20.3682C20.7764 20.0969 20.7764 19.7625 20.6196 19.4912C20.4628 19.2198 20.1732 19.0527 19.8598 19.0527Z" fill="#FFD94C"/>
</g>
<defs>
<clipPath id="clip0_2109_288">
<rect width="40" height="40" fill="white"/>
</clipPath>
</defs>
</svg>
