<svg width="40" height="40" viewBox="0 0 40 40" fill="none" xmlns="http://www.w3.org/2000/svg">
<g clip-path="url(#clip0_2109_252)">
<path d="M34.4189 22.2677C33.0273 22.275 31.8178 22.6102 30.8051 23.1056C30.4335 22.3697 30.0619 21.714 29.9963 21.2331C29.9235 20.6721 29.836 20.3297 29.9235 19.6594C30.0109 18.9891 30.4043 18.0346 30.3971 17.9617C30.3898 17.8889 30.3096 17.5464 29.5082 17.5391C28.7067 17.5319 28.0145 17.6922 27.9344 17.9034C27.8543 18.1147 27.7012 18.5956 27.5992 19.0911C27.4608 19.8197 25.9963 22.4208 25.1584 23.7832C24.8889 23.2514 24.6557 22.7851 24.6047 22.4135C24.5318 21.8524 24.4444 21.51 24.5319 20.8397C24.6193 20.1694 25.0127 19.2149 25.0054 19.1421C24.9982 19.0692 24.918 18.7268 24.1166 18.7195C23.3151 18.7122 22.6229 18.8725 22.5428 19.0838C22.4626 19.2951 22.3752 19.7905 22.2076 20.2714C22.04 20.7523 20.0947 25.0947 19.5847 26.2167C19.3224 26.7923 19.0965 27.2514 18.9362 27.5646C18.9362 27.5646 18.9289 27.5865 18.9071 27.6229C18.7686 27.8925 18.6885 28.0382 18.6885 28.0382C18.6885 28.0382 18.6885 28.0382 18.6885 28.0455C18.5792 28.2422 18.4626 28.4244 18.4043 28.4244C18.3606 28.4244 18.2805 27.8998 18.4189 27.1858C18.7104 25.6776 19.4025 23.3315 19.3952 23.2514C19.3952 23.2076 19.5264 22.7996 18.9435 22.5883C18.3752 22.377 18.1712 22.7268 18.1202 22.7268C18.0692 22.7268 18.0328 22.8506 18.0328 22.8506C18.0328 22.8506 18.6666 20.2131 16.8233 20.2131C15.6721 20.2131 14.0838 21.4736 13.2969 22.6102C12.8014 22.8798 11.745 23.4554 10.6156 24.0747C10.1858 24.3151 9.74132 24.5555 9.32602 24.7814C9.29688 24.7523 9.26773 24.7158 9.23859 24.6867C7.00908 22.3042 2.88522 20.6211 3.06008 17.4226C3.12566 16.2568 3.52638 13.1967 10.9799 9.48086C17.1147 6.45718 21.9963 7.29507 22.8415 9.15299C24.051 11.8051 20.2258 16.7304 13.887 17.4444C11.4681 17.714 10.2003 16.7814 9.87976 16.4317C9.5446 16.0674 9.4936 16.0455 9.36974 16.1184C9.16573 16.2277 9.29688 16.5555 9.36974 16.745C9.55917 17.2404 10.3388 18.1147 11.6575 18.5446C12.8233 18.9235 15.6575 19.1348 19.0892 17.8087C22.9289 16.3224 25.9308 12.1912 25.0492 8.7304C24.1676 5.21856 18.3388 4.06009 12.8233 6.02002C9.5446 7.18578 5.98904 9.02184 3.43167 11.4116C0.393416 14.2532 -0.0874583 16.7231 0.109263 17.7577C0.816003 21.4299 5.87976 23.8197 7.90526 25.5902C7.80325 25.6484 7.70853 25.6994 7.62839 25.7432C6.61564 26.2459 2.75407 28.2641 1.79232 30.3989C0.699427 32.8178 1.96719 34.5519 2.80507 34.785C5.40617 35.5064 8.08012 34.2095 9.51546 32.0674C10.9508 29.9253 10.7759 27.1421 10.1129 25.867C10.1056 25.8524 10.0983 25.8379 10.0838 25.8233C10.3461 25.6703 10.6156 25.51 10.8779 25.357C11.3952 25.051 11.9053 24.7668 12.3424 24.5337C12.0947 25.2113 11.9125 26.02 11.8251 27.1858C11.7158 28.5555 12.2768 30.3333 13.0127 31.0328C13.3406 31.3388 13.7267 31.3461 13.9745 31.3461C14.8342 31.3461 15.2204 30.632 15.6502 29.7869C16.1748 28.7523 16.6484 27.5501 16.6484 27.5501C16.6484 27.5501 16.0583 30.7996 17.6612 30.7996C18.2441 30.7996 18.8342 30.0419 19.0965 29.6557V29.663C19.0965 29.663 19.1111 29.6412 19.1402 29.5901C19.1985 29.4954 19.2349 29.4371 19.2349 29.4371V29.4226C19.4681 29.0146 19.9927 28.0892 20.7723 26.5519C21.7778 24.5701 22.7468 22.0929 22.7468 22.0929C22.7468 22.0929 22.8342 22.6976 23.1329 23.7031C23.3078 24.2932 23.6721 24.9417 23.9635 25.5683C23.7304 25.8962 23.5847 26.0783 23.5847 26.0783C23.5847 26.0783 23.5847 26.0783 23.592 26.0856C23.4025 26.3333 23.1985 26.6029 22.9727 26.8652C22.1785 27.8124 21.2313 28.898 21.1002 29.2113C20.9472 29.5829 20.9836 29.8524 21.275 30.071C21.4863 30.2313 21.8652 30.2532 22.2513 30.2313C22.9654 30.1803 23.4681 30.0055 23.7158 29.8962C24.102 29.7577 24.5537 29.5464 24.9763 29.2331C25.7559 28.6575 26.2295 27.8342 26.1858 26.7486C26.1639 26.1512 25.9672 25.5537 25.7267 24.9927C25.7996 24.8907 25.8652 24.7887 25.938 24.6867C27.1694 22.8871 28.1238 20.9126 28.1238 20.9126C28.1238 20.9126 28.2113 21.5173 28.51 22.5228C28.6557 23.0328 28.9544 23.5865 29.2167 24.1257C28.0583 25.0656 27.3442 26.1585 27.0892 26.8725C26.6302 28.1985 26.9872 28.796 27.6648 28.9344C27.9708 29 28.408 28.8543 28.7286 28.7158C29.1366 28.5847 29.6175 28.3588 30.0765 28.0237C30.8561 27.4481 31.6065 26.6466 31.5628 25.561C31.541 25.0656 31.4098 24.5774 31.2277 24.1038C32.2113 23.6958 33.479 23.4699 35.0965 23.6594C38.5646 24.0674 39.2495 26.2313 39.1184 27.1421C38.9872 28.0528 38.2586 28.5483 38.0182 28.7013C37.7778 28.8543 37.6976 28.9053 37.7195 29.0146C37.7486 29.1748 37.8652 29.1676 38.0692 29.1384C38.3533 29.0874 39.8907 28.4025 39.9563 26.7268C40.0655 24.5847 38.0255 22.2459 34.4189 22.2677ZM7.66482 31.2878C6.51363 32.541 4.91072 33.0146 4.21855 32.6138C3.47538 32.184 3.76682 30.3333 5.1803 29.0073C6.04005 28.1985 7.14751 27.4481 7.8834 26.9891C8.05098 26.8871 8.2987 26.7413 8.59742 26.5592C8.64843 26.53 8.67757 26.5155 8.67757 26.5155C8.73586 26.479 8.79414 26.4426 8.85243 26.4062C9.36974 28.3005 8.87429 29.969 7.66482 31.2878ZM16.0437 25.5902C15.643 26.5665 14.8051 29.0656 14.2951 28.9271C13.8579 28.8106 13.5883 26.9162 14.2076 25.0437C14.5209 24.1038 15.1839 22.9818 15.5701 22.5446C16.1967 21.8452 16.8889 21.612 17.0564 21.8962C17.2677 22.2677 16.2914 24.9781 16.0437 25.5902ZM22.9581 28.898C22.7905 28.9854 22.6302 29.0437 22.5574 29C22.5063 28.9708 22.6302 28.8543 22.6302 28.8543C22.6302 28.8543 23.4972 27.9217 23.8397 27.4991C24.0364 27.2514 24.2696 26.9599 24.5173 26.632V26.7268C24.5173 27.8415 23.439 28.592 22.9581 28.898ZM28.2914 27.6812C28.1676 27.5938 28.1894 27.3024 28.6047 26.3916C28.765 26.0346 29.1439 25.4371 29.7923 24.8616C29.8652 25.0947 29.9162 25.3206 29.9089 25.5319C29.9016 26.9381 28.8962 27.4626 28.2914 27.6812Z" fill="#CD6799"/>
</g>
<defs>
<clipPath id="clip0_2109_252">
<rect width="40" height="40" fill="white"/>
</clipPath>
</defs>
</svg>
