<svg width="40" height="40" viewBox="0 0 40 40" fill="none" xmlns="http://www.w3.org/2000/svg">
<g clip-path="url(#clip0_2113_158)">
<path d="M20 0C8.95422 0 0 8.95422 0 20C0 31.0458 8.95422 40 20 40C31.0458 40 40 31.0458 40 20C40 8.95422 31.0458 0 20 0Z" fill="#404040"/>
<path d="M29.7316 11.5048L26.1594 29.5152C26.1594 29.5152 25.6599 30.7643 24.286 30.1648L16.0425 23.8448L13.045 22.396L7.99909 20.6973C7.99909 20.6973 7.22471 20.4226 7.14971 19.8231C7.07487 19.2235 8.02409 18.8988 8.02409 18.8988L28.0828 11.0301C28.0828 11.0301 29.7316 10.3057 29.7316 11.5048Z" fill="#F5F5F5"/>
<path d="M15.4088 29.3131C15.4088 29.3131 15.1682 29.2906 14.8684 28.3412C14.5687 27.392 13.0449 22.3961 13.0449 22.3961L25.1601 14.7023C25.1601 14.7023 25.8596 14.2776 25.8346 14.7023C25.8346 14.7023 25.9595 14.7771 25.5848 15.1268C25.2101 15.4767 16.0674 23.695 16.0674 23.695" fill="#D4D4D4"/>
<path d="M19.2036 26.268L15.9429 29.2409C15.9429 29.2409 15.6881 29.4343 15.4092 29.313L16.0336 23.791" fill="#A3A3A3"/>
</g>
<defs>
<clipPath id="clip0_2113_158">
<rect width="40" height="40" fill="white"/>
</clipPath>
</defs>
</svg>
